<?xml version="1.0" encoding="utf-8"?>
<!-- Generator: Adobe Illustrator 24.3.0, SVG Export Plug-In . SVG Version: 6.00 Build 0)  -->
<svg version="1.1" id="Capa_1" xmlns="http://www.w3.org/2000/svg" xmlns:xlink="http://www.w3.org/1999/xlink" x="0px" y="0px"
	 viewBox="0 0 16 16" style="enable-background:new 0 0 16 16;" xml:space="preserve">
<style type="text/css">
	.st0{fill:#FFFFF0;}
</style>
<path class="st0" d="M11.2,14.4c-2.7,0-4.8-1.8-4.8-4s2.2-4,4.8-4s4.8,1.8,4.8,4c0,1.2-0.6,2.3-1.7,3c-0.1,0.1-0.2,0.2-0.1,0.4
	l0.2,0.8v0.1c0,0.1-0.1,0.2-0.2,0.2h-0.1L13,14.3c-0.1,0-0.2-0.1-0.3-0.1h-0.1C12.2,14.4,11.7,14.4,11.2,14.4 M9.1,9.5
	C9.3,9.8,9.7,9.9,10,9.7s0.4-0.6,0.2-0.9C10,8.7,9.8,8.5,9.6,8.5C9.3,8.5,9,8.8,9,9.2l0,0C9,9.3,9,9.4,9.1,9.5L9.1,9.5z M12.3,9.5
	c0.2,0.3,0.6,0.4,0.9,0.2s0.4-0.6,0.2-0.9c-0.1-0.2-0.3-0.3-0.5-0.3c-0.4,0-0.6,0.3-0.6,0.6C12.2,9.3,12.2,9.4,12.3,9.5"/>
<path class="st0" d="M0,6.8c0,1.5,0.8,2.8,2,3.7c0.1,0.1,0.2,0.3,0.1,0.4L2,11.5l-0.1,0.4V12c0,0.1,0.1,0.2,0.2,0.2l0,0h0.1l1.3-0.7
	c0.1-0.1,0.2-0.1,0.3-0.1s0.1,0,0.2,0c0.5,0.2,1.1,0.2,1.6,0.3c-0.1-0.4-0.2-0.8-0.2-1.3c0-2.9,2.8-5,5.8-5h0.1
	C10.6,3.4,8.4,2,5.8,2C2.6,2,0,4.2,0,6.8 M4.6,5.3C4.6,5.7,4.3,6,3.9,6S3.1,5.7,3.1,5.3l0,0c0-0.4,0.3-0.8,0.8-0.8
	C4.3,4.5,4.6,4.8,4.6,5.3 M8.5,5.3C8.5,5.7,8.2,6,7.7,6S7,5.7,7,5.3l0,0c0-0.4,0.3-0.8,0.8-0.8C8.2,4.5,8.5,4.8,8.5,5.3"/>
</svg>
