<?xml version="1.0" encoding="utf-8"?>
<!-- Generator: Adobe Illustrator 24.3.0, SVG Export Plug-In . SVG Version: 6.00 Build 0)  -->
<svg version="1.1" id="Capa_1" xmlns="http://www.w3.org/2000/svg" xmlns:xlink="http://www.w3.org/1999/xlink" x="0px" y="0px"
	 viewBox="0 0 16 16" style="enable-background:new 0 0 16 16;" xml:space="preserve">
<style type="text/css">
	.st0{fill:#FFFFF0;}
</style>
<path class="st0" d="M8,1C5.2,1,3,3.2,3,6v1h1c0.6,0,1,0.4,1,1v3c0,0.6-0.4,1-1,1H3c-0.6,0-1-0.4-1-1V6c0-3.3,2.7-6,6-6s6,2.7,6,6v6
	c0,1.4-1.1,2.5-2.5,2.5H9.4C9.2,14.8,8.9,15,8.5,15h-1c-0.6,0-1-0.4-1-1s0.4-1,1-1h1c0.4,0,0.7,0.2,0.9,0.5h2.1
	c0.8,0,1.5-0.7,1.5-1.5h-1c-0.6,0-1-0.4-1-1V8c0-0.6,0.4-1,1-1h1V6C13,3.2,10.8,1,8,1"/>
</svg>
