<svg id="Capa_1" data-name="Capa 1" xmlns="http://www.w3.org/2000/svg" viewBox="0 0 800 800"><defs><style>.cls-1,.cls-4{fill:#fff;}.cls-1{stroke:#f3f3f3;stroke-miterlimit:55.17;stroke-width:13.79px;}.cls-2{fill:#2a3c8e;}.cls-3{fill:#00adef;}</style></defs><rect class="cls-1" x="6.9" y="131.03" width="786.21" height="537.93" rx="48.28"/><path id="path14" class="cls-2" d="M302,398.29c0-48.66-59.3-88.32-132.45-88.32S37.14,349.63,37.14,398.29v5.19C37.14,455.1,89,497,169.63,497S302,455.14,302,403.48v-5.19"/><path id="path16" class="cls-3" d="M297,398.25c0,45.91-57,83.09-127.32,83.09S42.35,444.16,42.35,398.25,99.26,315,169.63,315,297,352.26,297,398.13"/><path id="path18" class="cls-4" d="M127.31,372.05s-1.31,1.46-.5,2.56c2,2.59,8.21,3.93,14.5,2.67a41.33,41.33,0,0,0,13.16-8.5A52.25,52.25,0,0,1,169.52,359a17,17,0,0,1,10.95-.32,33.53,33.53,0,0,1,10,5.94c8.72,6.69,43.76,37.89,49.81,43.28a298.08,298.08,0,0,1,56-18.37c-2.54-16-12.11-30.65-26.58-42.65-20.22,8.62-44.87,13.14-69,1.14a64.94,64.94,0,0,0-26-6.06c-19.29.48-27.43,8.89-36.22,17.86l-11.12,12.2"/><path id="path20" class="cls-4" d="M238.85,411.31c-.39-.35-41.21-36.74-50.43-43.86a22.51,22.51,0,0,0-11.57-5.51,15.12,15.12,0,0,0-5.44.51,49.33,49.33,0,0,0-14.9,9.09,42.63,42.63,0,0,1-14.58,9.16,23.2,23.2,0,0,1-16.05-2.47,7.29,7.29,0,0,1-2.66-3,5,5,0,0,1,1.35-5.43l11.57-12.44,3.86-3.93a68.37,68.37,0,0,0-10.26,2.36,43.28,43.28,0,0,1-12,2.28,110,110,0,0,1-12.23-2,179.61,179.61,0,0,1-32.49-11.81c-16,12.16-26.7,27.54-29.78,44.07,2.31.62,6,1.73,7.71,2.08,36.23,8.22,47.5,16.68,49.54,18.45a11.84,11.84,0,0,1,16.94-1,11.68,11.68,0,0,1,1.85,2.12A13.49,13.49,0,0,1,128,407a15.17,15.17,0,0,1,5.17.95,11.83,11.83,0,0,1,7.29,6.69,12,12,0,0,1,4.83-1.22,15.33,15.33,0,0,1,6,1.37,13.16,13.16,0,0,1,7.1,14.64h1.46A14.45,14.45,0,0,1,174.18,444a14.84,14.84,0,0,1-1.73,7,22.27,22.27,0,0,0,12.46,3.42,8.09,8.09,0,0,0,5.86-2.6c.35-.51.74-1.14.39-1.57l-10.22-11.57s-1.7-1.61-1.12-2.24,1.58.28,2.31.91c5.21,4.44,11.58,11.09,11.58,11.09s.54.94,2.85,1.38a10.52,10.52,0,0,0,8.1-1.93,13.53,13.53,0,0,0,1.78-1.85h0a5.58,5.58,0,0,0-.31-6.85L194,425.43s-1.69-1.61-1.11-2.28,1.62.28,2.35,1c3.86,3.18,9.1,8.65,14.24,13.77a9.59,9.59,0,0,0,11.57-.4,8.41,8.41,0,0,0,4.21-7.63,8.76,8.76,0,0,0-2.51-5.07l-16.28-16.72s-1.74-1.5-1.12-2.25,1.62.28,2.35.91c5.17,4.44,19.29,17.58,19.29,17.58a9.77,9.77,0,0,0,11-.23,7.54,7.54,0,0,0,3.62-6,8.77,8.77,0,0,0-2.74-6.77"/><path id="path22" class="cls-4" d="M159.83,432.52a35.66,35.66,0,0,0-5.67,1.25c-.19,0,0-1.18.39-1.77s3.58-10.74-4.52-14.35a9.49,9.49,0,0,0-11.34,1.73c-.31.35-.46.35-.5,0a9.23,9.23,0,0,0-6.29-8.5,12.22,12.22,0,0,0-13.85,5,8.91,8.91,0,0,0-10.1-7.6,9,9,0,0,0-7.45,10.3,8.9,8.9,0,0,0,10.09,7.6,8.79,8.79,0,0,0,4.83-2.43.36.36,0,0,1,0,.32,11.86,11.86,0,0,0,7.3,13.69,8.62,8.62,0,0,0,8.6-1.34c.69-.51.81-.28.69.39a8.49,8.49,0,0,0,6.25,9.13,7.85,7.85,0,0,0,9.46-2.08c.77-.75,1-.63,1,.51A11.19,11.19,0,1,0,160,432.59"/><path id="path24" class="cls-2" d="M159.83,454.47a10.39,10.39,0,0,1-10.38-10.07c0-.51,0-1.77-1.12-1.77a1.94,1.94,0,0,0-1.27.67,7.3,7.3,0,0,1-5.09,2.32,9.49,9.49,0,0,1-3.36-.71c-5.9-2.44-6-6.61-5.75-8.26a1.62,1.62,0,0,0,0-1.26l-.58-.36h-.34a1.74,1.74,0,0,0-1,.44,8.6,8.6,0,0,1-5,1.81,7.57,7.57,0,0,1-2.82-.55,11.11,11.11,0,0,1-6.79-12.83,1,1,0,0,0-.34-1.06l-.54-.47-.51.51a8,8,0,0,1-11.45-.17,8.37,8.37,0,0,1,.16-11.68,8,8,0,0,1,11.46.17,8.34,8.34,0,0,1,2.23,4.71l.27,2.21,1.19-1.89a11.84,11.84,0,0,1,9.42-5.23,12.31,12.31,0,0,1,3.51.55,8.33,8.33,0,0,1,5.71,7.87,1,1,0,0,0,1,1.1,1.54,1.54,0,0,0,.93-.47,7.92,7.92,0,0,1,5.94-2.72,12.1,12.1,0,0,1,4.47,1c7.72,3.35,4.13,13.22,4.09,13.3-.65,1.65-.65,2.36,0,2.79h.5a4.45,4.45,0,0,0,1.47-.43,13.39,13.39,0,0,1,4.09-.9h0a10.63,10.63,0,0,1,10.38,10.62A10.5,10.5,0,0,1,160,454.47Zm80.48-47.53C227.89,395.77,198.84,370.12,191,364a34.05,34.05,0,0,0-10.27-6.09,16.71,16.71,0,0,0-5-.79,20.31,20.31,0,0,0-6.41,1.1,51.36,51.36,0,0,0-15,9.72H154a42.43,42.43,0,0,1-12.85,8.34,21.42,21.42,0,0,1-4.79.51,12.14,12.14,0,0,1-8.91-2.75c-.23-.28,0-.75.43-1.46h0l11-12.16c8.8-8.85,16.94-17.19,35.8-17.62h.93a66.47,66.47,0,0,1,24.77,5.94A75.09,75.09,0,0,0,234.14,357a86.88,86.88,0,0,0,37-9c-1.47-1.22-3-2.44-4.52-3.62a79.73,79.73,0,0,1-32.48,7.56A70.65,70.65,0,0,1,202.62,344a70,70,0,0,0-27-6.49h-.89a46.17,46.17,0,0,0-30.86,11.13,61.39,61.39,0,0,0-15.43,2.83,40.8,40.8,0,0,1-10.81,2.13H113.5a207,207,0,0,1-38.7-11.06c-1.58,1.14-3.09,2.32-4.59,3.5a190.59,190.59,0,0,0,42.09,12.44c1.74,0,3.59.31,5.44.31a45,45,0,0,0,12.15-2.32c2.36-.67,4.94-1.42,7.72-1.93l-2.2,2.21-11.23,12.39a5.91,5.91,0,0,0-1.54,6.33,8.22,8.22,0,0,0,3,3.35,23.12,23.12,0,0,0,11.92,3.06,20,20,0,0,0,4.75-.51,42.61,42.61,0,0,0,14.89-9.32,48.89,48.89,0,0,1,14.62-8.93,15.88,15.88,0,0,1,4.05-.55h1.08A22.19,22.19,0,0,1,188,368c9.22,7.08,50.15,43.27,50.38,43.82a8,8,0,0,1,2.47,6.1,6.72,6.72,0,0,1-3.28,5.31,9.61,9.61,0,0,1-5.36,2,9,9,0,0,1-4.75-1.42s-14.12-13.18-19.29-17.58a4.4,4.4,0,0,0-2.43-1.3,1.28,1.28,0,0,0-1.08.51c-.81,1,0,2.4,1.16,3.34l16.4,16.45a8.58,8.58,0,0,1,2.24,4.52,7.65,7.65,0,0,1-3.86,6.89,10.43,10.43,0,0,1-5.79,2,8.31,8.31,0,0,1-4.67-1.45l-2.35-2.36c-4.28-4.29-8.68-8.74-11.92-11.49a4.41,4.41,0,0,0-2.43-1.26,1.43,1.43,0,0,0-1.05.43c-.38.44-.61,1.19.31,2.44a5.43,5.43,0,0,0,.81.91l12.08,13.81a4.8,4.8,0,0,1,0,5.82l-.43.55a8.87,8.87,0,0,1-1.11,1.1,9.52,9.52,0,0,1-5.83,1.89,11,11,0,0,1-1.62,0,3.9,3.9,0,0,1-2.32-1h0c-.65-.71-6.67-7-11.57-11.18a3.87,3.87,0,0,0-2.31-1.29,1.42,1.42,0,0,0-1.05.51c-1,1.1.47,2.75,1.12,3.34l10.15,11.41a2.34,2.34,0,0,1-.39.71c-.34.51-1.58,1.77-5.28,2.24a7.61,7.61,0,0,1-1.35,0,23.49,23.49,0,0,1-10-3,15.34,15.34,0,0,0,1.47-6.57A15.58,15.58,0,0,0,160,428.62h-.66a13.79,13.79,0,0,0-7.72-14.52,15.72,15.72,0,0,0-6.36-1.41,13.06,13.06,0,0,0-4.63.82,12.81,12.81,0,0,0-7.45-6.41,16.55,16.55,0,0,0-5.44-1,14.13,14.13,0,0,0-8.45,2.79,12.65,12.65,0,0,0-19-1.1c-3.16-2.48-15.74-10.58-49.3-18.37-1.62-.4-5.37-1.46-7.72-2.17a56.34,56.34,0,0,0-.89,5.63l7.45,1.81c34.3,7.87,45.64,15.74,47.53,17.35a14,14,0,0,0-1,5,13,13,0,0,0,12.81,13,11.64,11.64,0,0,0,2.35-.24,15.3,15.3,0,0,0,9.68,11.45,12.71,12.71,0,0,0,4.59.9,12.17,12.17,0,0,0,2.94-.39,13.58,13.58,0,0,0,8,7.63,13.76,13.76,0,0,0,5.06,1.06,10.8,10.8,0,0,0,3.85-.74,15,15,0,0,0,25.28,4.91,28.15,28.15,0,0,0,12.84,3.94,15.54,15.54,0,0,0,1.93,0,11.85,11.85,0,0,0,8.37-4.49,8.57,8.57,0,0,0,.54-.9,14.29,14.29,0,0,0,4.09.67,13.64,13.64,0,0,0,8.3-3,11.85,11.85,0,0,0,4.9-7.28h0a13.59,13.59,0,0,0,2.78.28,15.19,15.19,0,0,0,8.52-2.76,12.64,12.64,0,0,0,6.14-11.17,12.94,12.94,0,0,0,2.78.31,14.63,14.63,0,0,0,8.25-2.59,11.85,11.85,0,0,0,5.56-9.21,12.6,12.6,0,0,0-1.7-7.43,326.21,326.21,0,0,1,52.89-16.92,43.85,43.85,0,0,0-.73-5.59,302,302,0,0,0-56,18.45"/><path id="path26" class="cls-2" d="M741.6,377.05a12.94,12.94,0,0,1-18.49,1.52,14.35,14.35,0,0,1-1.5-1.52,27.26,27.26,0,0,1,0-26.76,13,13,0,0,1,18.55-1.46,13.23,13.23,0,0,1,1.44,1.46,27.53,27.53,0,0,1,0,26.76Zm11.84-35a30.44,30.44,0,0,0-43.56,0,36.42,36.42,0,0,0,0,43.28,30.84,30.84,0,0,0,43.56,0,36.39,36.39,0,0,0,0-43.28"/><path id="path28" class="cls-2" d="M623.69,370.12a12.13,12.13,0,0,1-4.24,10.47,15.27,15.27,0,0,1-9,2.87,8,8,0,0,1-5.25-1.73,6.76,6.76,0,0,1-2.12-5.59,7,7,0,0,1,3.51-6.45,22.74,22.74,0,0,1,6.83-2.05l3.4-.67a26,26,0,0,0,3.85-1,15.37,15.37,0,0,0,2.86-1.45Zm7.72-33a35.7,35.7,0,0,0-16.67-3.94q-14.38,0-20.29,7.63a22.26,22.26,0,0,0-4.21,12.51H604.6a11.12,11.12,0,0,1,2.08-5.31,9.44,9.44,0,0,1,7.72-2.67,15.21,15.21,0,0,1,7.21,1.37,5.08,5.08,0,0,1,2.47,4.92,4.56,4.56,0,0,1-3.2,4.29,22.06,22.06,0,0,1-5.94,1.34l-5.1.63a35.88,35.88,0,0,0-13.11,3.73,16.53,16.53,0,0,0-8.14,15.47,15.86,15.86,0,0,0,4.74,12.7,19.76,19.76,0,0,0,12.81,4.49c32.45,1.49,32.06-17.43,32.37-21.37V351.16a14.6,14.6,0,0,0-7.25-14.24"/><path id="path30" class="cls-2" d="M557.3,346.08a9.63,9.63,0,0,1,8.18,3.51,13.12,13.12,0,0,1,2.23,5.86h16q-1.32-12.39-8.49-17.23a31.76,31.76,0,0,0-18.37-4.88,26.72,26.72,0,0,0-20.75,8.26,33.1,33.1,0,0,0-7.53,23.13,32.59,32.59,0,0,0,6.83,21.44q6.75,8.26,21.22,8.26a25.35,25.35,0,0,0,21.76-9.91,24.77,24.77,0,0,0,5.33-13h-16a13.48,13.48,0,0,1-2.78,7.39,9.38,9.38,0,0,1-7.71,2.88,10.45,10.45,0,0,1-10.57-7.2,28.69,28.69,0,0,1-1.55-10.19,31.06,31.06,0,0,1,1.55-10.7,10.82,10.82,0,0,1,10.84-7.6"/><path id="path32" class="cls-2" d="M524.31,333.34c-32.87,0-30.87,29.66-30.87,29.66v30.14h14.9V364.85a23.28,23.28,0,0,1,1.73-10.27A12.18,12.18,0,0,1,522,348.64h1.77l2.47.24V333.46h-2"/><path id="path34" class="cls-2" d="M449.5,349.07a11.47,11.47,0,0,1,8.83-3.3,12.88,12.88,0,0,1,8.8,3.11A12.71,12.71,0,0,1,471,358H445.45A15.9,15.9,0,0,1,449.5,349.07Zm20,28.33a9.45,9.45,0,0,1-2,2.28,12.45,12.45,0,0,1-8.34,2.32,14,14,0,0,1-7.94-2,13.78,13.78,0,0,1-6-12h41.24a77.33,77.33,0,0,0-.46-11.49,28.79,28.79,0,0,0-4.52-11.8,23.25,23.25,0,0,0-9.64-8.7,32.1,32.1,0,0,0-13.31-2.67,26.93,26.93,0,0,0-20.26,7.87,31.83,31.83,0,0,0-7.71,23q0,16,8.64,23.13a30.47,30.47,0,0,0,20,7.12,27.32,27.32,0,0,0,21.3-8.42,20.89,20.89,0,0,0,5.17-8.77H469.79"/><path id="path36" class="cls-2" d="M424.27,393.14H410.65V358.32a9.76,9.76,0,0,0-8.54-10.78,10.6,10.6,0,0,0-1.49,0,10.15,10.15,0,0,0-10.35,10,8,8,0,0,0,0,.85v35H376.66v-35a9.64,9.64,0,0,0-8.29-10.76,8.89,8.89,0,0,0-1.63-.06,10.08,10.08,0,0,0-10.35,9.81c0,.34,0,.67,0,1v35H342.78v-35c0-14.44,9.42-25.34,24-25.34a20.76,20.76,0,0,1,16.94,7.87A21.63,21.63,0,0,1,400.62,333c14.89,0,23.65,10.47,23.65,25.34V393"/><path id="path38" class="cls-2" d="M680.37,377.2a10.89,10.89,0,0,1-9.53,4.72,10.49,10.49,0,0,1-9.41-4.8A25,25,0,0,1,658.34,364a23.69,23.69,0,0,1,3-12.44,10.35,10.35,0,0,1,9.53-5,11.39,11.39,0,0,1,7.48,2.75A19.89,19.89,0,0,1,683.65,365a21.32,21.32,0,0,1-3.28,12.35ZM698.27,315s-15-1.61-15,10.71V342a17.51,17.51,0,0,0-15.62-8.69,21.61,21.61,0,0,0-17.86,8.46,38,38,0,0,0-6.68,23.6,31.93,31.93,0,0,0,6.79,21c4.51,5.47,13.39,7.87,21.26,7.87,27.47,0,27-24,27-24V315"/><path id="path40" class="cls-3" d="M476.7,448.49a22.71,22.71,0,0,0-3.32-13.22,10.87,10.87,0,0,0-9.3-4.64,10.73,10.73,0,0,0-9.22,4.64,22.79,22.79,0,0,0-3.05,13.22,20,20,0,0,0,3.28,12.59,10.84,10.84,0,0,0,9.42,4.64,10.41,10.41,0,0,0,9-4.64,21.31,21.31,0,0,0,3.32-12.59m-25,41.15a7.18,7.18,0,0,1-2.19,5.31,7.26,7.26,0,0,1-5.29,2.2h-7.45V444.32a24.68,24.68,0,0,1,9-21.09,29.66,29.66,0,0,1,19.53-5.58,25.9,25.9,0,0,1,19.52,8.22,33,33,0,0,1,7,22,36.11,36.11,0,0,1-6.6,22.5,20.46,20.46,0,0,1-16.86,8.38,21.83,21.83,0,0,1-9.64-2,16.29,16.29,0,0,1-7-6.84v19.67"/><path id="path42" class="cls-3" d="M566.05,448.53q0,15.15,8.65,16.84a11.45,11.45,0,0,0,12.69-3.94,16.31,16.31,0,0,0,2.82-7.59,33.74,33.74,0,0,0,0-10.23,20,20,0,0,0-3.55-9.05,9.4,9.4,0,0,0-8.18-3.93,9.82,9.82,0,0,0-9.88,5.51A29.14,29.14,0,0,0,566,448.72m24.57,25.34v-3.93A16.59,16.59,0,0,1,580.1,478a21.08,21.08,0,0,1-13-1.1A24.45,24.45,0,0,1,556,467.1a34.46,34.46,0,0,1-4.63-18.89,37,37,0,0,1,6.14-22.15c4.09-5.62,10.65-8.22,19.71-8.49a27,27,0,0,1,19.29,5.74c5.56,4.29,8.84,10.9,8.84,21.17v31.07c0,9.92-6.75,28.25-28,26.68-13.16-1-20.49-6.49-24.54-19h15.7a12,12,0,0,0,12.39,5.62,11.72,11.72,0,0,0,6.44-4.29A18.47,18.47,0,0,0,590.71,474"/><path id="path44" class="cls-3" d="M531.14,454.63a12.29,12.29,0,0,1-4.25,10.5,15.51,15.51,0,0,1-9,2.87,8.06,8.06,0,0,1-5.2-1.73,8,8,0,0,1,1.38-12,21.12,21.12,0,0,1,6.83-2.08l3.36-.63a20.62,20.62,0,0,0,3.86-1.06A13.52,13.52,0,0,0,531,449Zm7.71-33a36,36,0,0,0-16.62-3.94c-9.61,0-16.36,2.56-20.34,7.68a22.52,22.52,0,0,0-4.16,12.47h14.35a11.28,11.28,0,0,1,2.08-5.31,9.44,9.44,0,0,1,7.72-2.64,15.18,15.18,0,0,1,7.21,1.34,5.18,5.18,0,0,1,2.47,4.92,4.58,4.58,0,0,1-3.2,4.32,25.81,25.81,0,0,1-5.94,1.34l-5.09.63a35.64,35.64,0,0,0-13.12,3.7,16.51,16.51,0,0,0-8.14,15.46,15.92,15.92,0,0,0,5.05,12.75,19.8,19.8,0,0,0,12.81,4.48c32.45,1.49,32.06-17.43,32.37-21.36v-21.6A14.55,14.55,0,0,0,539,421.62"/><path id="path46" class="cls-3" d="M649.81,461.43a11.45,11.45,0,0,1-9.95,4.72,11.74,11.74,0,0,1-10-4.72,27.16,27.16,0,0,1,0-26.71,11.69,11.69,0,0,1,10-4.68,11.46,11.46,0,0,1,9.95,4.68,27.37,27.37,0,0,1,0,26.71m11.85-35a30.45,30.45,0,0,0-43.52,0,36.38,36.38,0,0,0,0,43.27,30.77,30.77,0,0,0,43.52,0,36.41,36.41,0,0,0,0-43.27"/></svg>