<?xml version="1.0" encoding="utf-8"?>
<!-- Generator: Adobe Illustrator 24.3.0, SVG Export Plug-In . SVG Version: 6.00 Build 0)  -->
<svg version="1.1" id="Capa_1" xmlns="http://www.w3.org/2000/svg" xmlns:xlink="http://www.w3.org/1999/xlink" x="0px" y="0px"
	 viewBox="0 0 16 16" style="enable-background:new 0 0 16 16;" xml:space="preserve">
<style type="text/css">
	.st0{fill:#1C1F2C;}
</style>
<path class="st0" d="M5.3,1.6c-1,0.3-1.9,0.5-2.8,0.9c-0.2,0-0.3,0.2-0.3,0.3C1.6,7,2.9,10,4.4,12c0.6,0.9,1.4,1.6,2.3,2.2
	c0.3,0.2,0.7,0.4,0.9,0.5c0.1,0.1,0.2,0.1,0.3,0.1H8h0.1c0.1,0,0.2-0.1,0.3-0.1c0.2-0.1,0.5-0.3,0.9-0.5c0.9-0.6,1.6-1.4,2.3-2.2
	c1.5-2,2.8-5,2.3-9.2c0-0.2-0.2-0.3-0.3-0.4c-0.7-0.2-1.8-0.6-2.8-0.9C9.6,1.3,8.5,1.1,8,1.1S6.4,1.3,5.3,1.6L5.3,1.6z M5.1,0.6
	C6.2,0.3,7.3,0,8,0s1.8,0.3,2.9,0.6s2.2,0.7,2.9,0.9c0.6,0.2,1,0.7,1,1.3c0.6,4.5-0.8,7.8-2.5,10c-0.7,0.9-1.6,1.8-2.5,2.5
	c-0.3,0.2-0.7,0.4-1,0.6C8.5,15.9,8.2,16,8,16s-0.5-0.1-0.8-0.2c-0.4-0.2-0.7-0.4-1-0.6c-1-0.7-1.8-1.5-2.5-2.5
	C2,10.5,0.6,7.2,1.2,2.7c0.1-0.6,0.5-1.1,1-1.3C3.1,1.1,4.1,0.8,5.1,0.6"/>
<path class="st0" d="M10.9,5.1c0.2,0.2,0.2,0.5,0,0.7l0,0l-3,3C7.7,9,7.3,9,7.1,8.9l0,0L5.6,7.4c-0.2-0.2-0.2-0.5,0-0.7
	s0.5-0.2,0.7,0l1.1,1.1L10,5.2C10.3,5,10.7,5,10.9,5.1L10.9,5.1"/>
</svg>
